#define terminal_width 50
#define terminal_height 50
static unsigned char terminal_bits[] = {
   0x00, 0x00, 0x00, 0x00, 0x00, 0x00, 0x00, 0x00, 0x00, 0x00, 0x00, 0x00,
   0x00, 0x00, 0x00, 0x00, 0x00, 0x00, 0x00, 0x00, 0x00, 0x00, 0x00, 0x00,
   0x00, 0x00, 0x00, 0x00, 0x00, 0xf0, 0xff, 0xff, 0x3f, 0x00, 0x00, 0x00,
   0x58, 0x55, 0x55, 0x55, 0x00, 0x00, 0x00, 0xa8, 0xaa, 0xaa, 0x2a, 0x00,
   0x00, 0x00, 0x58, 0x55, 0x55, 0x55, 0x00, 0x00, 0x00, 0xa8, 0x00, 0x00,
   0x2c, 0x00, 0x00, 0x00, 0x58, 0x00, 0x00, 0x58, 0x00, 0x00, 0x00, 0x28,
   0x00, 0x00, 0x28, 0x00, 0x00, 0x00, 0x58, 0x00, 0x00, 0x58, 0x00, 0x00,
   0x00, 0x28, 0x00, 0x00, 0x28, 0x00, 0x00, 0x00, 0x58, 0x00, 0x00, 0x58,
   0x00, 0x00, 0x00, 0x28, 0x00, 0x00, 0x28, 0x00, 0x00, 0x00, 0x58, 0x00,
   0x00, 0x58, 0x00, 0x00, 0x00, 0x28, 0x00, 0x00, 0x28, 0x00, 0x00, 0x00,
   0x58, 0x00, 0x00, 0x58, 0x00, 0x00, 0x00, 0x28, 0x00, 0x00, 0x28, 0x00,
   0x00, 0x00, 0x58, 0x00, 0x00, 0x58, 0x00, 0x00, 0x00, 0x28, 0x00, 0x00,
   0x28, 0x00, 0x00, 0x00, 0x58, 0x00, 0x00, 0x58, 0x00, 0x00, 0x00, 0x28,
   0x00, 0x00, 0x28, 0x00, 0x00, 0x00, 0x58, 0x00, 0x00, 0x58, 0x00, 0x00,
   0x00, 0x28, 0x00, 0x00, 0x28, 0x00, 0x00, 0x00, 0xd8, 0x00, 0x00, 0x5c,
   0x00, 0x00, 0x00, 0xa8, 0xff, 0xff, 0x2f, 0x00, 0x00, 0x00, 0x58, 0x55,
   0x55, 0x55, 0x00, 0x00, 0x00, 0xa8, 0xaa, 0xaa, 0x2a, 0x00, 0x00, 0x00,
   0x50, 0x55, 0x55, 0x15, 0x00, 0x00, 0x00, 0x00, 0x00, 0x00, 0x00, 0x00,
   0x00, 0x00, 0x00, 0x00, 0x00, 0x00, 0x00, 0x00, 0x00, 0x00, 0x00, 0x00,
   0x00, 0x00, 0x00, 0x00, 0x00, 0x00, 0x00, 0x00, 0x00, 0x00, 0x00, 0xf8,
   0xff, 0xff, 0x7f, 0x00, 0x00, 0x00, 0x4c, 0x92, 0x24, 0xc9, 0x00, 0x00,
   0x00, 0xb6, 0x6d, 0xdb, 0xb6, 0x01, 0x00, 0x00, 0x93, 0x24, 0x49, 0x12,
   0x03, 0x00, 0x80, 0x6d, 0xdb, 0xb6, 0x6d, 0x06, 0x00, 0xc0, 0x24, 0x49,
   0x92, 0x24, 0x0d, 0x00, 0x60, 0xdb, 0xff, 0xff, 0xdf, 0x1a, 0x00, 0x30,
   0x49, 0x00, 0x00, 0x48, 0x32, 0x00, 0xf0, 0xff, 0xff, 0xff, 0xff, 0x3f,
   0x00, 0xb0, 0xaa, 0xaa, 0xaa, 0xaa, 0x2a, 0x00, 0x50, 0x55, 0x55, 0x55,
   0x55, 0x35, 0x00, 0xb0, 0xaa, 0xaa, 0xaa, 0xaa, 0x2a, 0x00, 0x00, 0x00,
   0x00, 0x00, 0x00, 0x00, 0x00, 0x00, 0x00, 0x00, 0x00, 0x00, 0x00, 0x00,
   0x00, 0x00, 0x00, 0x00, 0x00, 0x00, 0x00, 0x00, 0x00, 0x00, 0x00, 0x00,
   0x00, 0x00};
